<svg viewBox="0 0 20 20" version="1.1" xmlns="http://www.w3.org/2000/svg" xmlns:xlink="http://www.w3.org/1999/xlink">
    <path d="M10,20 C4.48666667,20 0,15.5144444 0,10 C0,4.48555556 4.48666667,0 10,0 C15.5133333,0 20,4.48555556 20,10 C20,15.5144444 15.5133333,20 10,20 Z M10,2.22222222 C5.71111111,2.22222222 2.22222222,5.71111111 2.22222222,10 C2.22222222,14.2888889 5.71111111,17.7777778 10,17.7777778 C14.2888889,17.7777778 17.7777778,14.2888889 17.7777778,10 C17.7777778,5.71111111 14.2888889,2.22222222 10,2.22222222 Z" id="Shape"></path>
    <path d="M12.5477778,14.1188889 L9.21444444,10.7855556 C9.00555556,10.5766667 8.88888889,10.2944444 8.88888889,10 L8.88888889,4.44444444 L11.1111111,4.44444444 L11.1111111,9.54 L14.1188889,12.5477778 L12.5477778,14.1188889 Z" id="Shape"></path>
</svg>