<svg viewBox="0 0 24 24" xmlns="http://www.w3.org/2000/svg">
    <path d="M12 24c6.627 0 12-5.373 12-12S18.627 0 12 0 0 5.373 0 12s5.373 12 12 12zm0-17.6c-.882 0-1.6.717-1.6 1.6 0 .882.718 1.6 1.6 1.6.882 0 1.6-.718 1.6-1.6 0-.883-.718-1.6-1.6-1.6zm0 4.8c-1.765 0-3.2-1.435-3.2-3.2 0-1.765 1.435-3.2 3.2-3.2 1.765 0 3.2 1.435 3.2 3.2 0 1.765-1.435 3.2-3.2 3.2zM7.2 16h9.6c-.49-1.446-2.33-2.4-4.8-2.4-2.472 0-4.31.954-4.8 2.4zm11.2 1.6H5.6v-.8c0-2.826 2.632-4.8 6.4-4.8 3.77 0 6.4 1.974 6.4 4.8v.8z"></path>
</svg>