<svg class="bradybunch" xmlns="http://www.w3.org/2000/svg" viewBox="0 0 500 500">
    <path d="M226.1 238.7H43.5c-6.6 0-12-5.4-12-12v-92.2c0-6.6 5.4-12 12-12h182.6c6.6 0 12 5.4 12 12v92.2c0 6.6-5.4 12-12 12zm230.4 0H273.9c-6.6 0-12-5.4-12-12v-92.2c0-6.6 5.4-12 12-12h182.6c6.6 0 12 5.4 12 12v92.2c0 6.6-5.4 12-12 12zm0 138.8H273.9c-6.6 0-12-5.4-12-12v-92.2c0-6.6 5.4-12 12-12h182.6c6.6 0 12 5.4 12 12v92.2c0 6.6-5.4 12-12 12zm-230.4 0H43.5c-6.6 0-12-5.4-12-12v-92.2c0-6.6 5.4-12 12-12h182.6c6.6 0 12 5.4 12 12v92.2c0 6.6-5.4 12-12 12z">
</path>
</svg>
