<svg viewBox="0 0 20 20" xmlns="http://www.w3.org/2000/svg">
    <path d="M15 3c.828 0 1.5-.672 1.5-1.5S15.828 0 15 0s-1.5.672-1.5 1.5S14.172 3 15 3zM5 3c.828 0 1.5-.672 1.5-1.5S5.828 0 5 0 3.5.672 3.5 1.5 4.172 3 5 3zm15 7.5v-2h-2.263c-.89-3.445-4.017-6-7.737-6-3.72 0-6.845 2.555-7.736 6H0v2h2c0 .34.028.67.07 1H0v2h2.59c.14.347.307.68.493 1H0v2h4.727c1.41 1.24 3.253 2 5.273 2 2.02 0 3.864-.76 5.274-2H20v-2h-3.082c.186-.32.353-.653.493-1H20v-2h-2.07c.042-.33.07-.66.07-1h2zm-10-6c1.77 0 3.36.776 4.46 2H5.54c1.1-1.224 2.69-2 4.46-2zm-6 6c0-.702.128-1.374.35-2H9v7.91c-2.833-.48-5-2.943-5-5.91zm7 5.91V8.5h4.65c.223.626.35 1.298.35 2 0 2.967-2.167 5.43-5 5.91z"></path>
</svg>