<svg viewBox="0 -1 20 20" xmlns="http://www.w3.org/2000/svg">
    <path d="M10.25 16.772H.93c-.37 0-.705-.22-.852-.56-.148-.34-.08-.734.17-1.005l2.15-2.315C1.435 11.547.93 10.002.93 8.386.93 3.762 5.11 0 10.25 0c5.137 0 9.317 3.762 9.317 8.386 0 4.624-4.18 8.386-9.318 8.386zm2.794-9.784c.644 0 1.165-.52 1.165-1.164 0-.644-.522-1.165-1.166-1.165-.643 0-1.164.52-1.164 1.164 0 .643.52 1.164 1.164 1.164zm-5.59 0c.643 0 1.164-.52 1.164-1.164 0-.644-.52-1.165-1.164-1.165-.644 0-1.165.52-1.165 1.164 0 .643.52 1.164 1.164 1.164zm-1.47 2.33c.72 1.643 2.355 2.795 4.265 2.795 1.91 0 3.545-1.152 4.265-2.795H5.983zm-2.916 5.59h7.18c4.11 0 7.455-2.925 7.455-6.522 0-3.596-3.344-6.522-7.454-6.522-4.11 0-7.455 2.926-7.455 6.522 0 1.432.53 2.795 1.53 3.943.313.36.304.896-.02 1.246l-1.237 1.332z"></path>
</svg>