<svg viewBox="2 1 22 22" xmlns="http://www.w3.org/2000/svg">
<path fill-rule="evenodd" clip-rule="evenodd" d="M17 12.8C17 10.4291 15.423 8.44811 13.298 7.85463C14.301 7.35577 15 6.30766 15 5.08571C15 3.38446 13.654 2 12 2C10.346 2 9 3.38446 9 5.08571C9 6.30766 9.699 7.35577 10.702 7.85463C8.577 8.44811 7 10.4291 7 12.8V14.8571C7 15.4249 7.448 15.8857 8 15.8857H9V18.9714C9 19.5392 9.448 20 10 20H14C14.552 20 15 19.5392 15 18.9714V15.8857H16C16.552 15.8857 17 15.4249 17 14.8571V12.8ZM15 13.8286H14C13.448 13.8286 13 14.2894 13 14.8572V17.9429H11V14.8572C11 14.2894 10.552 13.8286 10 13.8286H9V12.8001C9 11.0988 10.346 9.71436 12 9.71436C13.654 9.71436 15 11.0988 15 12.8001V13.8286ZM13 5.0857C13 4.51896 12.551 4.05713 12 4.05713C11.449 4.05713 11 4.51896 11 5.0857C11 5.65244 11.449 6.11427 12 6.11427C12.551 6.11427 13 5.65244 13 5.0857Z"/>
<path fill-rule="evenodd" clip-rule="evenodd" d="M12 22.9999C8.1472 22.9999 4 21.8394 4 19.2892C4 18.3903 4.5336 17.1398 7.0728 16.291L7.516 18.074C5.9336 18.6037 5.6 19.1946 5.6 19.2892C5.6 19.767 7.8008 21.1446 12 21.1446C16.1992 21.1446 18.4 19.767 18.4 19.2892C18.4 19.2002 18.0888 18.6362 16.6088 18.1167L17.0728 16.342C19.492 17.1909 20 18.4135 20 19.2892C20 21.8394 15.8528 22.9999 12 22.9999Z"/>
</svg>
