<svg xmlns="http://www.w3.org/2000/svg" viewBox="0 0 20 20">
    <path d="M2.924 17.066c-3.899-3.899-3.899-10.243 0-14.142 3.9-3.899 10.243-3.899 14.142 0 3.9 3.9 3.9 10.243 0 14.142-3.899 3.9-10.243 3.9-14.142 0zM15.652 4.338c-3.119-3.119-8.194-3.119-11.314 0-3.119 3.12-3.119 8.195 0 11.314 3.12 3.12 8.195 3.12 11.314 0 3.12-3.119 3.12-8.194 0-11.314zM9.995 8.581l3.536-3.535 1.414 1.414-3.535 3.535 3.535 3.536-1.414 1.414-3.536-3.535-3.535 3.535-1.414-1.414L8.58 9.995 5.046 6.46 6.46 5.046 9.995 8.58z"/>
</svg>
