<svg
	xmlns="http://www.w3.org/2000/svg" width="17" height="20" viewBox="0 0 17 20">
	<path d="M11 20H1C0.448 20 0 19.552 0 19V8C0 3.589 3.589 0 8 0C14.498 0 15.546 4.586 16.56 9.02C16.691 9.591 16.824 10.173 16.97 10.758C17.045 11.057 16.977 11.373 16.788 11.615C16.599 11.858 16.308 12 16 12H15V15C15 16.103 14.103 17 13 17H12V19C12 19.552 11.552 20 11 20ZM2 18H10V16C10 15.448 10.448 15 11 15H13V11C13 10.448 13.448 10 14 10H14.733C14.691 9.82 14.651 9.643 14.61 9.465C13.489 4.561 12.685 2 8 2C4.691 2 2 4.691 2 8V18Z"/>
	<path d="M8 11.988C8 11.988 12 9.07999 12 6.92399C12 4.87699 8.889 3.98799 8 6.67599C7.111 3.98799 4 4.87699 4 6.92399C4 9.07999 8 11.988 8 11.988Z"/>
</svg>
