<svg
	xmlns="http://www.w3.org/2000/svg" width="19" height="19" viewBox="0 0 19 19">
	<path d="M1.58333 1.58254H9.5V4.73417H14.25V3.62979L10.6194 0H1.58333C0.710125 0 0 0.709333 0 1.58333V15.8333C0 16.7058 0.710125 17.4167 1.58333 17.4167H5.54167V15.8333H1.58333V1.58254Z"/>
	<path d="M10.2917 11.7352V13.583C10.2917 14.8196 11.3573 15.8258 12.6667 15.8258H14.2501V14.2424H12.6667C12.2305 14.2424 11.8751 13.9471 11.8751 13.583V11.7352C11.8751 11.3718 12.2305 11.0758 12.6667 11.0758H14.2501V9.49243H12.6667C11.3573 9.49243 10.2917 10.4986 10.2917 11.7352Z"/>
	<path d="M12.6666 6.32593C9.17454 6.32593 6.33325 9.16722 6.33325 12.6593C6.33325 16.1513 9.17454 18.9926 12.6666 18.9926C16.1586 18.9926 18.9999 16.1513 18.9999 12.6593C18.9999 9.16722 16.1586 6.32593 12.6666 6.32593ZM12.6666 17.4093C10.047 17.4093 7.91659 15.2789 7.91659 12.6593C7.91659 10.0396 10.047 7.90926 12.6666 7.90926C15.2862 7.90926 17.4166 10.0396 17.4166 12.6593C17.4166 15.2789 15.2862 17.4093 12.6666 17.4093Z"/>
</svg>
