<svg xmlns="http://www.w3.org/2000/svg" viewBox="0 0 16 14">
    <path d="M13.6 4.667a2.39 2.39 0 0 1-2.252-1.556H0V1.556h11.348A2.39 2.39 0 0 1 13.6 0C14.923 0 16 1.047 16 2.333c0 1.287-1.077 2.334-2.4 2.334zm0-3.111a.79.79 0 0 0-.8.777c0 .43.36.778.8.778.44 0 .8-.348.8-.778a.79.79 0 0 0-.8-.777zm-8 3.11a2.39 2.39 0 0 1 2.252 1.556H16v1.556H7.852A2.39 2.39 0 0 1 5.6 9.333a2.39 2.39 0 0 1-2.252-1.555H0V6.222h3.348A2.39 2.39 0 0 1 5.6 4.667zm0 3.112c.44 0 .8-.349.8-.778a.79.79 0 0 0-.8-.778.79.79 0 0 0-.8.778c0 .43.36.778.8.778zm8 1.555c1.323 0 2.4 1.047 2.4 2.334C16 12.953 14.923 14 13.6 14a2.39 2.39 0 0 1-2.252-1.556H0V10.89h11.348A2.39 2.39 0 0 1 13.6 9.333zm0 3.111c.44 0 .8-.348.8-.777a.79.79 0 0 0-.8-.778.79.79 0 0 0-.8.778c0 .429.36.777.8.777z"/>
</svg>
