<svg viewBox="0 0 48 34" xmlns="http://www.w3.org/2000/svg">
    <path d="M24 18.968l-16.497-6.43L24 4.502l16.497 8.036L24 18.968zm10.91 7.738l-2.128 1.036c-5.5 2.68-12.066 2.68-17.564 0l-2.127-1.036v-7.41l10.098 3.937c.262.102.537.15.812.15s.55-.048.812-.15l10.097-3.937v7.41zm11.884-15.852L24.974.224c-.612-.3-1.336-.3-1.95 0L1.208 10.855c-.44.213-.775.58-.974.984-.13.257-.233.7-.233.916V25.01c0 1.17.977 2.126 2.182 2.126 1.204 0 2.182-.955 2.182-2.126v-9.114l4.363 1.7V28.02c0 .806.467 1.54 1.207 1.9C13.684 31.748 17.54 34 24 34c6.46 0 10.318-2.253 14.066-4.08.74-.36 1.207-1.094 1.207-1.9V17.595l7.357-2.866c.796-.313 1.333-1.05 1.368-1.886.037-.838-.436-1.616-1.204-1.99z"></path>
</svg>