<svg viewBox="-2 0 20 20" xmlns="http://www.w3.org/2000/svg">
    <path d="M14 10a1 1 0 0 0-1 1v4h-2a1 1 0 0 0-1 1v2H2V8c0-3.309 2.691-6 6-6 4.685 0 5.489 2.56 6.611 7.465l.122.535H14zm2.97.757c-.146-.584-.279-1.166-.41-1.737C15.546 4.586 14.498 0 8 0 3.589 0 0 3.589 0 8v11a1 1 0 0 0 1 1h10a1 1 0 0 0 1-1v-2h1c1.103 0 2-.897 2-2v-3h1a.998.998 0 0 0 .97-1.243z"></path>
    <path d="M9 4H7v2h2zM10.315 6.588l1.333 1.49 1.49-1.333-1.333-1.49zM4.195 5.255l-1.333 1.49 1.49 1.333 1.333-1.49zM8 7a3 3 0 0 0-3 3c0 1.926 2 2.988 2 2.988V14a1 1 0 1 0 2 0v-1.012s2-1.062 2-2.988c0-1.656-1.344-3-3-3"></path>
</svg>