<svg viewBox="-2 0 20 20" xmlns="http://www.w3.org/2000/svg">
    <path d="M16.97 10.758c-.146-.585-.28-1.167-.41-1.738C15.546 4.586 14.498 0 8 0 3.59 0 0 3.59 0 8v11c0 .552.448 1 1 1h10c.552 0 1-.448 1-1v-2h1c1.103 0 2-.897 2-2v-3h1c.308 0 .6-.142.788-.385.19-.242.257-.558.182-.857zM7 4h2v2H7V4zm4.648 4.078l-1.333-1.49 1.49-1.332 1.333 1.49-1.49 1.332zM2.862 6.745l1.333-1.49 1.49 1.333-1.333 1.49-1.49-1.333zM8 7c-1.657 0-3 1.344-3 3 0 1.926 2 2.988 2 2.988V14c0 .553.447 1 1 1 .553 0 1-.447 1-1v-1.012s2-1.063 2-2.988c0-1.656-1.344-3-3-3zm6 3c-.552 0-1 .448-1 1v4h-2c-.552 0-1 .448-1 1v2H2V8c0-3.31 2.69-6 6-6 4.685 0 5.49 2.56 6.61 7.465l.124.535H14z"></path>
</svg>