<svg xmlns="http://www.w3.org/2000/svg" viewBox="0 0 20 20">
    <path d="M9.6 0c5.301 0 9.6 4.477 9.6 10s-4.298 10-9.6 10S0 15.523 0 10 4.298 0 9.6 0zm.072 3.96c-.323 0-.598.117-.824.351-.226.235-.339.52-.339.855 0 .33.113.612.34.847.225.234.497.352.815.352.323 0 .598-.118.824-.352.226-.235.339-.517.339-.847 0-.335-.113-.62-.34-.855a1.093 1.093 0 0 0-.815-.351zm-2.08 11.213c1.153-.03 1.861-.046 2.124-.046.492 0 1.188.015 2.087.046v-.642c-.586-.046-.913-.092-.98-.139-.067-.046-.113-.15-.138-.31-.034-.226-.052-.883-.052-1.971 0-1.882.035-3.315.105-4.3l-.187-.155c-.775.346-1.761.565-2.959.658v.595l.56.023c.273.01.44.05.502.12.062.07.094.254.094.553l.022.905c.015.407.022.85.022 1.33 0 1.109-.02 1.825-.06 2.15-.024.237-.08.382-.167.433-.087.052-.411.088-.973.108v.642z"/>
</svg>
