<svg viewBox="2 2 20 20" xmlns="http://www.w3.org/2000/svg">
<path fill-rule="evenodd" clip-rule="evenodd" d="M12 3.83101C14.831 3.83101 17.1333 6.08598 17.1333 8.85882C17.1333 12.01 14.0046 16.7701 12 19.3946C9.99415 16.7726 6.86667 12.015 6.86667 8.85882C6.86667 6.08598 9.16897 3.83101 12 3.83101ZM12 22C14.8035 18.7168 19 13.0887 19 8.83293C19 5.06457 15.8605 2 12 2C8.1395 2 5 5.06457 5 8.83293C5 13.0899 9.19883 18.7179 12 22ZM14 9C14 7.898 13.103 7 12 7C10.897 7 10 7.898 10 9C10 10.103 10.897 11 12 11C13.103 11 14 10.103 14 9Z"/>
</svg>
