<svg viewBox="0 0 130 21" xmlns="http://www.w3.org/2000/svg"><defs><linearGradient x1="23.218%" y1="17.319%" x2="123.699%" y2="82.266%" id="a"><stop stop-color="#fff" offset="0%"/><stop stop-color="#fff" offset="100%"/></linearGradient><linearGradient x1="76.67%" y1="82.679%" x2="-24.952%" y2="18.08%" id="b"><stop stop-color="#fff" offset="0%"/><stop stop-color="#fff" offset="100%"/></linearGradient><linearGradient x1="17.366%" y1="76.983%" x2="81.936%" y2="-24.723%" id="c"><stop stop-color="#fff" offset="0%"/><stop stop-color="#fff" offset="100%"/></linearGradient><linearGradient x1="82.434%" y1="22.348%" x2="18.047%" y2="128.127%" id="d"><stop stop-color="#fff" offset="0%"/><stop stop-color="#fff" offset="100%"/></linearGradient></defs><g><path d="M26.542 5.508h4.012c1.425 0 2.77 1.485 2.77 3.34 0 1.74-1.345 3.282-2.77 3.282h-2.91v3.575c-.16.02-.34.02-.48.02-.24 0-.462-.02-.622-.02V5.508zm5.617 3.36c0-1.406-.85-2.46-1.93-2.46h-2.61v4.902h2.606c1.085 0 1.927-1.133 1.927-2.442zm5.852.06c.04.155.04.292.04.41 0 .155-.02.272-.04.37 0 0-.54-.04-1.043-.04-.76 0-1.364.078-1.364.078v5.977c-.22.02-.34.02-.503.02-.2 0-.42-.02-.54-.02V8.966s1.182-.078 2.185-.078c.74 0 1.262.04 1.262.04zm1.183 3.515c0 1.64.903 2.558 2.53 2.558 1.1 0 1.864-.23 2.165-.39.28.358.24.808.24.808s-.74.37-2.426.37c-2.51 0-3.593-1.288-3.593-3.496 0-2.344 1.225-3.4 3.27-3.4 1.908 0 2.95.84 3.03 2.91l.02.626H39.2v.02zm0-.743h4.113c.02-1.29-.46-2.03-1.926-2.03-1.445 0-2.187.76-2.187 2.03zM49.95 9.434s-.24.41-.7.586c0 0-.64-.37-1.484-.37-1.024 0-1.505.41-1.505 1.035 0 .957.726 1.152 2.01 1.25 1.08.097 2.064.683 2.064 1.836 0 1.51-.94 2.058-2.887 2.058-1.445 0-2.227-.645-2.227-.645s.24-.39.7-.566c0 0 .722.47 1.545.47 1.444 0 1.905-.43 1.905-1.153 0-1.016-.88-1.21-2.086-1.35-1.164-.135-1.986-.526-1.986-1.74 0-1.482.84-1.95 2.487-1.95 1.364-.02 2.166.546 2.166.546zm2.39 3.01c0 1.64.902 2.557 2.527 2.557 1.102 0 1.864-.23 2.165-.39.28.358.24.808.24.808s-.74.37-2.427.37c-2.508 0-3.592-1.288-3.592-3.496 0-2.344 1.224-3.4 3.27-3.4 1.906 0 2.95.84 3.03 2.91l.02.626H52.34v.02zm0-.744h4.112c.02-1.29-.46-2.03-1.926-2.03-1.444 0-2.186.76-2.186 2.03zm7.443 4.024c-.2.02-.34.02-.502.02-.22 0-.44-.02-.56-.02v-6.72l2.43-.116c2.55-.118 3.15.86 3.15 2.93v3.887s-.3.02-.56.02c-.12 0-.32-.02-.482-.02V11.68c0-1.386-.36-2.11-2.086-1.992l-1.365.08v5.956h-.02zm10.13-.78c.02.136.04.253.04.37 0 .156 0 .332-.02.41 0 0-.822.06-1.423.06-2.026 0-3.03-.997-3.03-3.36 0-2.07.563-3.517 2.87-3.517.843 0 1.565.06 1.565.06.02.135.02.272.02.39 0 .156 0 .33-.02.43 0 0-.943-.06-1.565-.06-1.583 0-1.763 1.153-1.763 2.696 0 1.856.44 2.56 1.906 2.56.6 0 1.143-.04 1.424-.04zm1.565-2.5c0 1.64.903 2.557 2.53 2.557 1.1 0 1.863-.23 2.164-.39.28.358.24.808.24.808s-.74.37-2.427.37c-2.507 0-3.59-1.288-3.59-3.496 0-2.344 1.223-3.4 3.27-3.4 1.905 0 2.95.84 3.03 2.91l.02.626H71.48v.02zm0-.744h4.112c.02-1.29-.46-2.03-1.926-2.03-1.444 0-2.186.76-2.186 2.03z"/><path d="M4.073 13.4c-.08-.06-.16-.117-.24-.176-.804-.606-1.325-1.524-1.446-2.5-.22-1.72 1.044-3.907 2.91-4.24-2.388.333-4.214 2.325-4.214 4.728 0 1.914 1.164 3.575 2.85 4.336-.1-.703-.04-1.445.14-2.148z"/><path d="M5.597 6.465c.32-.136.622-.214.923-.625.32-.43.42-.703.542-1.27.02-.292-.18-.234-1.124-.234C2.668 4.336 0 6.934 0 10.118c0 2.48 1.605 4.61 3.872 5.43-.24-.117-.482-.273-.702-.45-1.003-.78-1.685-1.933-1.846-3.183-.18-1.29.2-2.617 1.043-3.633.702-.898 2.027-1.797 3.23-1.817z"/><ellipse cx="4.293" cy="9.806" rx="1.244" ry="1.211"/><path d="M17.093 7.266c.08.06.16.118.24.176.803.606 1.325 1.524 1.465 2.5.24 1.72-1.023 3.907-2.89 4.24 2.39-.333 4.214-2.345 4.194-4.748 0-1.914-1.184-3.574-2.87-4.336.08.742.02 1.465-.14 2.168z"/><path d="M15.608 14.22c-.32.137-.622.215-.923.645-.32.43-.42.703-.54 1.27 0 .292.18.234 1.122.234 3.27-.02 5.918-2.62 5.918-5.81-.02-2.48-1.645-4.61-3.912-5.41.24.118.482.274.723.45 1.023.78 1.685 1.934 1.865 3.184.188 1.29-.2 2.616-1.02 3.632-.72.86-2.022 1.757-3.23 1.796z"/><ellipse cx="16.872" cy="10.86" rx="1.244" ry="1.211"/><path d="M13.903 16.7c-.06.08-.12.157-.18.235-.623.782-1.565 1.29-2.57 1.426-1.764.24-4.01-.97-4.352-2.81.348 2.33 2.41 4.1 4.9 4.087 1.968-.02 3.67-1.152 4.436-2.792-.762.08-1.504.04-2.226-.136z"/><path d="M6.78 15.255c-.14-.312-.22-.605-.66-.898-.442-.313-.723-.41-1.305-.508-.3 0-.24.17-.24 1.09.02 3.18 2.687 5.76 5.978 5.74 2.547-.02 4.734-1.6 5.557-3.81-.12.235-.28.47-.462.704-.802.995-1.986 1.64-3.27 1.815-1.324.176-2.688-.195-3.73-.996C7.744 17.71 6.8 16.42 6.78 15.25z"/><ellipse cx="10.212" cy="16.505" rx="1.244" ry="1.211"/><path d="M7.543 4.063l.18-.235c.623-.78 1.546-1.308 2.57-1.445 1.764-.234 4.272.977 4.633 2.793-.36-2.324-2.427-4.082-4.895-4.063-1.96.02-3.93 1.172-4.69 2.813.725-.078 1.487-.02 2.21.137z"/><path d="M14.665 5.47c.14.312.24.605.662.898.442.312.743.41 1.304.508.308 0 .248-.176.248-1.094-.04-3.184-2.71-5.762-6-5.722-2.55.017-4.716 1.62-5.54 3.826.12-.234.28-.47.463-.703.8-.996 1.964-1.66 3.25-1.836 1.32-.176 2.686.176 3.75.976.9.704 1.845 1.973 1.865 3.145z"/><ellipse cx="11.215" cy="4.239" rx="1.244" ry="1.211"/><path d="M80.007 14.16h3.772c.04.275.04.548.04.783 0 .508-.04.82-.04.82h-5.82V5.528c.34-.02.68-.04 1-.04.62 0 1.04.04 1.04.04v8.633zm6.32-1.21c0 1.036.742 1.426 1.805 1.426 1.284 0 2.147-.37 2.147-.37.38.683.48 1.406.48 1.406s-.95.41-2.63.41c-2.63 0-3.69-1.172-3.69-3.516 0-2.305 1.22-3.438 3.41-3.438 2.042 0 3.23 1.27 3.23 3.282 0 .488-.06.8-.06.8h-4.7zm.02-1.29h2.748v-.194c0-.527-.34-1.133-1.264-1.133-1.04-.02-1.46.547-1.48 1.328zm5.677 2.052c0-1.328.722-2.07 2.688-2.07h1.405v-.352c0-.78-.562-.937-1.324-.937-1.023 0-2.027.273-2.027.273s-.22-.762-.14-1.465c0 0 .762-.27 2.167-.27 2.126 0 3.21.59 3.21 2.328v4.532s-1.746.057-3.43.057c-1.847-.02-2.55-.742-2.55-2.09zm4.093.742v-1.562l-1.264-.02c-.903-.02-1.003.43-1.003.84 0 .43.14.782.862.782.622 0 1.405-.04 1.405-.04zm7.603-5.527s.04.332.04.76c0 .216-.02.47-.04.705h-2.066v5.332s-.42.04-.983.04c-.28 0-.6-.02-.9-.04v-6.74s.76-.096 1.97-.096c1.104 0 1.986.04 1.986.04zm2.73 1.465v5.332s-.423.04-.964.04c-.28 0-.602-.02-.923-.04v-6.74s1.304-.096 2.85-.096c2.446 0 3.21.76 3.21 2.87v3.966s-.423.04-.964.04c-.288 0-.61-.02-.93-.04v-4.082c0-.977-.32-1.25-1.324-1.25h-.963zm5.857-3.282c0-.43.04-.78.04-.78.3-.02.622-.04.903-.04.56 0 1.023.04 1.023.04s.04.33.04.78c0 .215-.02.47-.04.703 0 0-.44.04-1.023.04-.3 0-.602-.02-.903-.04-.02-.234-.04-.488-.04-.703zm1.946 8.634c-.3.02-.622.04-.883.04-.562 0-.983-.04-.983-.04V8.927c.32-.02.622-.04.903-.04.562 0 .963.04.963.04v6.817zm3.73-5.352v5.332s-.42.04-.962.04c-.28 0-.6-.02-.92-.04v-6.74s1.31-.096 2.85-.096c2.45 0 3.21.76 3.21 2.87v3.966s-.42.04-.96.04c-.28 0-.602-.02-.923-.04v-4.082c0-.977-.32-1.25-1.323-1.25h-.963zm8.647 5.37c-2.266 0-3.23-1.034-3.23-3.515 0-1.934 1.104-3.36 3.37-3.36 1.667 0 3.23.04 3.23.04v6.192c0 2.2-.88 3.57-3.43 3.57-1.604 0-2.667-.47-2.667-.47s.1-.72.48-1.408c0 0 .984.43 2.188.43 1.07 0 1.55-.528 1.55-1.543 0 0-.8.06-1.483.06zm1.486-1.405v-3.965h-1.204c-1.083 0-1.585.82-1.585 1.855 0 1.407.36 2.11 1.444 2.11h1.35z"/></g></svg>