<svg xmlns="http://www.w3.org/2000/svg" xmlns:xlink="http://www.w3.org/1999/xlink" id="Layer_1" viewBox="0 0 627 370">
    <style>
        .st0{fill:#77787b}.st3{fill:#f7901e}
    </style>
    <clipPath id="SVGID_2_">
        <use overflow="visible" xlink:href="#SVGID_1_"/>
    </clipPath>
    <g>
        <path d="M368.3 292.9v-65.1H414c28 0 53.5-30.5 53.5-64 0-17-5.7-33.3-16-45.7-10.2-12.3-23.9-19.3-37.5-19.3h-75.2V293l29.5-.1zm68.5-129.1c0 21-13.1 38.7-28.5 38.7h-40.4v-77.7h40.4c16.3 0 28.5 16.7 28.5 39M514.9 263.6h74.7c.7 5.1.7 7.2.7 11.6 0 9.5-.7 15.4-.7 15.4h-105V99.4c6.2-.4 11.4-.7 17.3-.7 11.3 0 13 .7 13 .7v164.2z" class="st0"/>
        <g>
            <path d="M544 107.6v2.7h-4.6v12.8H536v-12.8h-4.6v-2.7H544zM556.4 107.6h4.6v15.8h-3.2v-10.7-1.2-1.2l-2.9 13.1h-3.2l-2.9-13.1v13.1h-3.2v-15.8h4.8l2.9 12.4 3.1-12.4z" class="st0"/>
        </g>
    </g>
    <g>
        <linearGradient id="logo-color-with-tm-SVGID_3_" x1="52.447" x2="107.957" y1="157.561" y2="236.837" gradientUnits="userSpaceOnUse">
            <stop offset="0" stop-color="#fcd3a5"/>
            <stop offset="1" stop-color="#f7901e"/>
        </linearGradient>
        <path fill="url(#logo-color-with-tm-SVGID_3_)" d="M78.9 229.6c-1.1-.7-2.2-1.5-3.3-2.4-10.5-8.3-17.4-20.6-19.1-33.8-3-23.2 13.6-52.6 38.2-57-31.3 4.4-55.3 31.3-55.3 63.8 0 25.9 15.3 48.2 37.3 58.5-.9-9.8-.2-19.7 2.2-29.1z"/>
        <path d="M98.7 136.2c4.1-1.8 8.2-3 12.2-8.5 4.2-5.8 5.5-9.6 7.1-17.1.1-3.8-2.4-3.2-14.6-3.2-43 0-77.9 34.9-77.9 77.9 0 33.5 21.2 62.1 50.9 73.1-3.1-1.7-6.2-3.7-9.3-6.1-13.3-10.5-22.1-26.1-24.2-42.9-2.2-17.4 2.8-35.2 13.6-48.9 9.1-11.9 26.5-24.1 42.2-24.3z" class="st3"/>
        <path d="M98 181.3c0-9-7.3-16.3-16.3-16.3s-16.3 7.3-16.3 16.3 7.3 16.3 16.3 16.3c9-.1 16.3-7.3 16.3-16.3z" class="st3"/>
        <linearGradient id="logo-color-with-tm-SVGID_4_" x1="15.854" x2="71.365" y1="154.645" y2="233.922" gradientTransform="rotate(180 145.944 187.062)" gradientUnits="userSpaceOnUse">
            <stop offset="0" stop-color="#fcd3a5"/>
            <stop offset="1" stop-color="#f7901e"/>
        </linearGradient>
        <path fill="url(#logo-color-with-tm-SVGID_4_)" d="M249.4 147c1.1.7 2.2 1.5 3.3 2.3 10.5 8.2 17.4 20.5 19.2 33.7 3.1 23.2-13.3 52.7-37.9 57.2 31.2-4.6 55.2-31.5 55-64-.1-25.9-15.5-48.2-37.6-58.3 1 9.8.4 19.6-2 29.1z"/>
        <path d="M230 240.5c-4.1 1.8-8.2 3-12.1 8.6-4.1 5.8-5.5 9.6-7 17.1-.1 3.8 2.4 3.2 14.7 3.1 43-.2 77.7-35.2 77.5-78.2-.2-33.5-21.5-62-51.2-72.8 3.1 1.6 6.2 3.6 9.3 6.1 13.3 10.5 22.2 26 24.4 42.8 2.3 17.3-2.6 35.2-13.4 49-9.2 11.7-26.4 23.9-42.2 24.3z" class="st3"/>
        <path d="M230.5 195.4c0 9 7.4 16.2 16.3 16.2 9 0 16.2-7.4 16.2-16.3 0-9-7.4-16.2-16.3-16.2-9 0-16.2 7.3-16.2 16.3z" class="st3"/>
        <linearGradient id="logo-color-with-tm-SVGID_5_" x1="22.635" x2="78.144" y1="166.244" y2="245.519" gradientTransform="rotate(-90.298 146.17 177.219)" gradientUnits="userSpaceOnUse">
            <stop offset="0" stop-color="#b1b3b5"/>
            <stop offset="1" stop-color="#77787b"/>
        </linearGradient>
        <path fill="url(#logo-color-with-tm-SVGID_5_)" d="M207.7 274c-.7 1.1-1.5 2.2-2.3 3.3-8.2 10.5-20.5 17.5-33.7 19.2-23.2 3.1-52.7-13.3-57.2-37.9 4.6 31.2 31.6 55.1 64.1 55 25.9-.1 48.1-15.5 58.3-37.6-9.9 1-19.7.3-29.2-2z"/>
        <path d="M114.2 254.6c-1.8-4.1-3-8.2-8.6-12.1-5.8-4.1-9.6-5.5-17.1-7-3.8-.1-3.2 2.4-3.1 14.7.2 43 35.3 77.7 78.3 77.5 33.5-.2 62-21.5 72.8-51.2-1.6 3.1-3.6 6.2-6.1 9.4-10.5 13.3-26 22.2-42.8 24.4-17.3 2.3-35.2-2.6-49-13.4-11.8-9.2-24-26.5-24.4-42.3z" class="st0"/>
        <path d="M159.3 255.1c-9 0-16.2 7.4-16.2 16.4 0 9 7.4 16.2 16.4 16.2 9 0 16.2-7.4 16.2-16.4-.1-9-7.4-16.2-16.4-16.2z" class="st0"/>
        <linearGradient id="logo-color-with-tm-SVGID_6_" x1="44.581" x2="101.664" y1="142.916" y2="224.439" gradientTransform="matrix(.0098 1 -1 .0098 341.527 30.323)" gradientUnits="userSpaceOnUse">
            <stop offset="0" stop-color="#b1b3b5"/>
            <stop offset="1" stop-color="#77787b"/>
        </linearGradient>
        <path fill="url(#logo-color-with-tm-SVGID_6_)" d="M124.3 103.9c.7-1.1 1.5-2.2 2.3-3.3 8.2-10.5 20.4-17.6 33.6-19.4 23.2-3.2 56.1 13 60.7 37.6-4.7-31.2-31.8-55-64.3-54.7-25.9.3-51.5 15.8-61.5 37.9 9.8-1 19.7-.4 29.2 1.9z"/>
        <path d="M217.8 122.8c1.8 4.1 3 8.1 8.6 12.1 5.8 4.1 9.6 5.4 17.1 6.9 3.8.1 3.2-2.4 3.1-14.7-.4-43-35.6-77.5-78.6-77.1-33.5.3-61.9 21.8-72.6 51.6 1.6-3.1 3.6-6.3 6-9.4 10.4-13.4 25.9-22.3 42.7-24.6 17.3-2.4 35.2 2.4 49.1 13.1 11.9 9.2 24.2 26.4 24.6 42.1z" class="st0"/>
        <path d="M172.7 122.6c9-.1 16.2-7.4 16.1-16.4-.1-9-7.4-16.2-16.4-16.1-9 .1-16.2 7.4-16.1 16.4.1 8.9 7.4 16.2 16.4 16.1z" class="st0"/>
    </g>
</svg>
