<?xml version="1.0" encoding="UTF-8"?>
<svg viewBox="0 0 600 325" version="1.1" xmlns="http://www.w3.org/2000/svg" xmlns:xlink="http://www.w3.org/1999/xlink">
    <!-- Generator: Sketch 50.2 (55047) - http://www.bohemiancoding.com/sketch -->
    <title>PL Logo</title>
    <desc>Created with Sketch.</desc>
    <defs>
        <linearGradient x1="23.5934901%" y1="17.3022895%" x2="123.972875%" y2="82.1233851%" id="logo-color-no-tm-linearGradient-1">
            <stop stop-color="#FCD3A5" offset="0%"></stop>
            <stop stop-color="#F7901E" offset="100%"></stop>
        </linearGradient>
        <linearGradient x1="76.6941512%" y1="82.5690357%" x2="-24.8947843%" y2="17.9559109%" id="logo-color-no-tm-linearGradient-2">
            <stop stop-color="#FCD3A5" offset="0%"></stop>
            <stop stop-color="#F7901E" offset="100%"></stop>
        </linearGradient>
        <linearGradient x1="17.4329245%" y1="76.7487142%" x2="81.9641775%" y2="-24.9254887%" id="logo-color-no-tm-linearGradient-3">
            <stop stop-color="#B1B3B5" offset="0%"></stop>
            <stop stop-color="#77787B" offset="100%"></stop>
        </linearGradient>
        <linearGradient x1="82.6295658%" y1="22.3165481%" x2="18.2705152%" y2="128.128355%" id="logo-color-no-tm-linearGradient-4">
            <stop stop-color="#B1B3B5" offset="0%"></stop>
            <stop stop-color="#77787B" offset="100%"></stop>
        </linearGradient>
    </defs>
    <g id="PL-Logo" stroke="none" stroke-width="1" fill="none" fill-rule="evenodd">
        <g id="Group-2" transform="translate(17.000000, 23.000000)" fill-rule="nonzero">
            <g id="Group" transform="translate(313.000000, 49.000000)" fill="#77787B">
                <g id="Shape">
                    <path d="M30.3,194.9 L30.3,129.8 L76,129.8 C104,129.8 129.5,99.3 129.5,65.8 C129.5,48.8 123.8,32.5 113.5,20.1 C103.3,7.8 89.6,0.8 76,0.8 L0.8,0.8 L0.8,195 L30.3,194.9 Z M98.8,65.8 C98.8,86.8 85.7,104.5 70.3,104.5 L29.9,104.5 L29.9,26.8 L70.3,26.8 C86.6,26.8 98.8,43.5 98.8,65.8 Z"></path>
                    <path d="M176.9,165.6 L251.6,165.6 C252.3,170.7 252.3,172.8 252.3,177.2 C252.3,186.7 251.6,192.6 251.6,192.6 L146.6,192.6 L146.6,1.4 C152.8,1 158,0.7 163.9,0.7 C175.2,0.7 176.9,1.4 176.9,1.4 L176.9,165.6 Z"></path>
                </g>
            </g>
            <g id="Group">
                <path d="M53.9,180.6 C52.8,179.9 51.7,179.1 50.6,178.2 C40.1,169.9 33.2,157.6 31.5,144.4 C28.5,121.2 45.1,91.8 69.7,87.4 C38.4,91.8 14.4,118.7 14.4,151.2 C14.4,177.1 29.7,199.4 51.7,209.7 C50.8,199.9 51.5,190 53.9,180.6 Z" id="Shape" fill="url(#logo-color-no-tm-linearGradient-1)"></path>
                <path d="M73.7,87.2 C77.8,85.4 81.9,84.2 85.9,78.7 C90.1,72.9 91.4,69.1 93,61.6 C93.1,57.8 90.6,58.4 78.4,58.4 C35.4,58.4 0.5,93.3 0.5,136.3 C0.5,169.8 21.7,198.4 51.4,209.4 C48.3,207.7 45.2,205.7 42.1,203.3 C28.8,192.8 20,177.2 17.9,160.4 C15.7,143 20.7,125.2 31.5,111.5 C40.6,99.6 58,87.4 73.7,87.2 Z" id="Shape" fill="#F7901E"></path>
                <path d="M73,132.3 C73,123.3 65.7,116 56.7,116 C47.7,116 40.4,123.3 40.4,132.3 C40.4,141.3 47.7,148.6 56.7,148.6 C65.7,148.5 73,141.3 73,132.3 Z" id="Shape" fill="#F7901E"></path>
                <path d="M224.4,98 C225.5,98.7 226.6,99.5 227.7,100.3 C238.2,108.5 245.1,120.8 246.9,134 C250,157.2 233.6,186.7 209,191.2 C240.2,186.6 264.2,159.7 264,127.2 C263.9,101.3 248.5,79 226.4,68.9 C227.4,78.7 226.8,88.5 224.4,98 Z" id="Shape" fill="url(#logo-color-no-tm-linearGradient-2)"></path>
                <path d="M205,191.5 C200.9,193.3 196.8,194.5 192.9,200.1 C188.8,205.9 187.4,209.7 185.9,217.2 C185.8,221 188.3,220.4 200.6,220.3 C243.6,220.1 278.3,185.1 278.1,142.1 C277.9,108.6 256.6,80.1 226.9,69.3 C230,70.9 233.1,72.9 236.2,75.4 C249.5,85.9 258.4,101.4 260.6,118.2 C262.9,135.5 258,153.4 247.2,167.2 C238,178.9 220.8,191.1 205,191.5 Z" id="Shape" fill="#F7901E"></path>
                <path d="M205.5,146.4 C205.5,155.4 212.9,162.6 221.8,162.6 C230.8,162.6 238,155.2 238,146.3 C238,137.3 230.6,130.1 221.7,130.1 C212.7,130.1 205.5,137.4 205.5,146.4 Z" id="Shape" fill="#F7901E"></path>
                <path d="M182.7,225 C182,226.1 181.2,227.2 180.4,228.3 C172.2,238.8 159.9,245.8 146.7,247.5 C123.5,250.6 94,234.2 89.5,209.6 C94.1,240.8 121.1,264.7 153.6,264.6 C179.5,264.5 201.7,249.1 211.9,227 C202,228 192.2,227.3 182.7,225 Z" id="Shape" fill="url(#logo-color-no-tm-linearGradient-3)"></path>
                <path d="M89.2,205.6 C87.4,201.5 86.2,197.4 80.6,193.5 C74.8,189.4 71,188 63.5,186.5 C59.7,186.4 60.3,188.9 60.4,201.2 C60.6,244.2 95.7,278.9 138.7,278.7 C172.2,278.5 200.7,257.2 211.5,227.5 C209.9,230.6 207.9,233.7 205.4,236.9 C194.9,250.2 179.4,259.1 162.6,261.3 C145.3,263.6 127.4,258.7 113.6,247.9 C101.8,238.7 89.6,221.4 89.2,205.6 Z" id="Shape" fill="#77787B"></path>
                <path d="M134.3,206.1 C125.3,206.1 118.1,213.5 118.1,222.5 C118.1,231.5 125.5,238.7 134.5,238.7 C143.5,238.7 150.7,231.3 150.7,222.3 C150.6,213.3 143.3,206.1 134.3,206.1 Z" id="Shape" fill="#77787B"></path>
                <path d="M99.3,54.9 C100,53.8 100.8,52.7 101.6,51.6 C109.8,41.1 122,34 135.2,32.2 C158.4,29 191.3,45.2 195.9,69.8 C191.2,38.6 164.1,14.8 131.6,15.1 C105.7,15.4 80.1,30.9 70.1,53 C79.9,52 89.8,52.6 99.3,54.9 Z" id="Shape" fill="url(#logo-color-no-tm-linearGradient-4)"></path>
                <path d="M192.8,73.8 C194.6,77.9 195.8,81.9 201.4,85.9 C207.2,90 211,91.3 218.5,92.8 C222.3,92.9 221.7,90.4 221.6,78.1 C221.2,35.1 186,0.6 143,1 C109.5,1.3 81.1,22.8 70.4,52.6 C72,49.5 74,46.3 76.4,43.2 C86.8,29.8 102.3,20.9 119.1,18.6 C136.4,16.2 154.3,21 168.2,31.7 C180.1,40.9 192.4,58.1 192.8,73.8 Z" id="Shape" fill="#77787B"></path>
                <path d="M147.7,73.6 C156.7,73.5 163.9,66.2 163.8,57.2 C163.7,48.2 156.4,41 147.4,41.1 C138.4,41.2 131.2,48.5 131.3,57.5 C131.4,66.4 138.7,73.7 147.7,73.6 Z" id="Shape" fill="#77787B"></path>
            </g>
        </g>
    </g>
</svg>