<svg viewBox="0 0 24 24" version="1.1" xmlns="http://www.w3.org/2000/svg" xmlns:xlink="http://www.w3.org/1999/xlink">
    <path d="M7.44890023,19.8777494 L14.5510998,19.8777494 C14.5510998,18.4093697 13.3561547,17.2144246 11.8877749,17.2144246 L10.1122251,17.2144246 C8.6438453,17.2144246 7.44890023,18.4093697 7.44890023,19.8777494 L7.44890023,19.8777494 Z M16.3266497,21.6532993 L5.67335035,21.6532993 L5.67335035,19.8777494 C5.67335035,17.4301539 7.66462954,15.4388747 10.1122251,15.4388747 L11.8877749,15.4388747 C14.3353705,15.4388747 16.3266497,17.4301539 16.3266497,19.8777494 L16.3266497,21.6532993 Z" id="Fill-1507"></path>
    <path d="M3.89780046,19.8777494 C3.89780046,19.2607458 3.99101683,18.6659366 4.15969407,18.1021995 L3.01002552,18.1021995 C1.54164577,18.1021995 0.346700694,19.2971446 0.346700694,20.7655244 L0.346700694,21.6532993 L3.89780046,21.6532993 L3.89780046,19.8777494 Z" id="Fill-1508"></path>
    <path d="M7.0249877,14.4921515 C6.79594176,13.5102724 5.91882012,12.7751948 4.86680681,12.7751948 C3.64167739,12.7751948 2.64825723,13.7695027 2.64825723,14.9946321 C2.64825723,16.1025753 3.46234685,17.0134323 4.52323791,17.1794463 C5.0692195,16.0519721 5.94367782,15.1144817 7.0249877,14.4921515" id="Fill-1509"></path>
    <path d="M18.9899745,18.1021995 L17.8403059,18.1021995 C18.0089832,18.6659366 18.1021995,19.2607458 18.1021995,19.8777494 L18.1021995,21.6532993 L21.6532993,21.6532993 L21.6532993,20.7655244 C21.6532993,19.2971446 20.4583542,18.1021995 18.9899745,18.1021995" id="Fill-1510"></path>
    <path d="M17.2959223,12.7755499 C16.2128369,12.7755499 15.3144087,13.5532407 15.1190982,14.5795086 C16.1391516,15.2036144 16.9630067,16.1118081 17.4850184,17.1957813 C18.6204825,17.0981261 19.5162475,16.1561969 19.5162475,14.9949872 C19.5162475,13.76897 18.5219395,12.7755499 17.2959223,12.7755499" id="Fill-1511"></path>
    <path d="M11,11.8877749 C10.510836,11.8877749 10.1122251,12.2863859 10.1122251,12.7755499 C10.1122251,13.2647139 10.510836,13.6633248 11,13.6633248 C11.489164,13.6633248 11.8877749,13.2647139 11.8877749,12.7755499 C11.8877749,12.2863859 11.489164,11.8877749 11,11.8877749 M11,15.4388747 C9.53162025,15.4388747 8.33667517,14.2439296 8.33667517,12.7755499 C8.33667517,11.3071701 9.53162025,10.1122251 11,10.1122251 C12.4683798,10.1122251 13.6633248,11.3071701 13.6633248,12.7755499 C13.6633248,14.2439296 12.4683798,15.4388747 11,15.4388747" id="Fill-1512"></path>
    <path d="M14.5510998,3.89780046 L7.44890023,3.89780046 L7.44890023,2.12225058 L14.5510998,2.12225058 L14.5510998,3.89780046 Z M14.5510998,7.44890023 L7.44890023,7.44890023 L7.44890023,5.67335035 L14.5510998,5.67335035 L14.5510998,7.44890023 Z M15.4388747,0.346700694 L6.56112529,0.346700694 C5.58102175,0.346700694 4.7855754,1.14214704 4.7855754,2.12225058 L4.7855754,11.8877749 L7.44890023,9.22445012 L15.4388747,9.22445012 C16.4189782,9.22445012 17.2144246,8.42900377 17.2144246,7.44890023 L17.2144246,2.12225058 C17.2144246,1.14214704 16.4189782,0.346700694 15.4388747,0.346700694 L15.4388747,0.346700694 Z" id="Fill-1513"></path>
</svg>
