<svg viewBox="-3 0 20 20" xmlns="http://www.w3.org/2000/svg">
    <path d="M5.88745117,9.3349229 L5.88745117,4.5683252 L4.59445117,5.8613252 L3.18045117,4.4473252 L6.88745117,0.740325195 L10.5944512,4.4473252 L9.18045117,5.8613252 L7.91320801,4.59408203 L7.91320801,8.39978027 C7.91320801,12.0107803 8.93120801,12.7197803 10.110208,13.5417803 C11.424208,14.4567803 12.913208,15.4947803 12.913208,19.3997803 L10.913208,19.3997803 C10.913208,16.5387803 10.097208,15.9697803 8.96720801,15.1827803 C8.28020801,14.7047803 7.50920801,14.1677803 6.91320801,13.1537803 C6.31720801,14.1667803 5.54620801,14.7037803 4.85920801,15.1827803 C3.72920801,15.9697803 2.91320801,16.5387803 2.91320801,19.3997803 L0.913208008,19.3997803 C0.913208008,15.4947803 2.40220801,14.4567803 3.71620801,13.5417803 C4.78549164,12.7962746 5.72234596,12.1437163 5.88745117,9.3349229 Z"></path>
</svg>