<svg xmlns="http://www.w3.org/2000/svg" viewBox="0 0 24 24"><g fill="none" fill-rule="evenodd"><path d="M1 1h22v22H1z"/><g fill="#747678" fill-rule="nonzero"><path d="M3.96 13.723l7.853-7.857 5.219 5.217-7.854 7.857zM18.329 9.79l.66-.658a3.695 3.695 0 0 0 0-5.219 3.695 3.695 0 0 0-5.219 0l-.659.66 5.218 5.218zM7.6 19.957l-4.726 1.18a.917.917 0 0 1-1.112-1.111L2.943 15.3 7.6 19.957z"/></g><path fill="#747678" d="M19.344 15.656H23v1.688h-3.656V21h-1.688v-3.656H14v-1.688h3.656V12h1.688z"/></g></svg>