<svg viewBox="0 0 23 23" xmlns="http://www.w3.org/2000/svg">
    <path d="M10.5 15.5v2a1 1 0 0 1-1 1h-1v3a1 1 0 0 1-1 1h-4a1 1 0 0 1-1-1v-3h-1a1 1 0 0 1-1-1v-2c0-2.305 1.577-4.231 3.702-4.808A2.993 2.993 0 0 1 2.5 8c0-1.654 1.346-3 3-3s3 1.346 3 3a2.993 2.993 0 0 1-1.702 2.692c2.125.577 3.702 2.503 3.702 4.808zm-2 1v-1c0-1.654-1.346-3-3-3s-3 1.346-3 3v1h1a1 1 0 0 1 1 1v3h2v-3a1 1 0 0 1 1-1h1zM5.5 7c-.551 0-1 .449-1 1 0 .551.449 1 1 1 .551 0 1-.449 1-1 0-.551-.449-1-1-1zm10.754 9.923c1.325.652 2.246 2.004 2.246 3.577v1a1 1 0 0 1-1 1h-6a1 1 0 0 1-1-1v-1c0-1.573.921-2.925 2.246-3.577A2.993 2.993 0 0 1 11.5 14.5c0-1.654 1.346-3 3-3s3 1.346 3 3c0 .998-.495 1.877-1.246 2.423zM12.5 20.5h4c0-1.104-.897-2-2-2s-2 .896-2 2zm2-7c-.551 0-1 .449-1 1 0 .551.449 1 1 1 .551 0 1-.449 1-1 0-.551-.449-1-1-1zM19 0c-2.206 0-4 1.794-4 4h2c0-1.102.897-2 2-2s2 .898 2 2c0 1.103-.897 2-2 2h-1v2h2v-.126A4.008 4.008 0 0 0 23 4c0-2.206-1.794-4-4-4zm0 11a1 1 0 1 0 0-2 1 1 0 0 0 0 2z"></path>
</svg>