<svg class="pointer" xmlns="http://www.w3.org/2000/svg" viewBox="0 0 866.929 866.93">
    <path d="M144.465 450.93c7.8 46.7 58.9 155.4 159.8 257.5v55.3h362.4v-55.3l36.6-61.5c13.102-21.9 20-47 20-72.5v-187.7c-.3-16.3-19.198-32.6-45-37.6-20.5-4-39.6.2-49.8 9.6-.3-16.3-19.1-32.6-44.898-37.7-18.5-3.7-36-.6-46.7 7-3.2-15-21.9-29.2-46.6-34.1-21.3-4.2-41.2-.2-51.8 9.1h-.1v-.1c-.5-4.9-27.902-270.3-28-270.7-5.102-46.8-81.2-40.7-81.102 5.8l-.2 436.5c0 5.2-3.8 9.5-8.9 10.2h-.2c-.6.1-1.1.1-1.7.1-14.698-.4-47.8-.9-80.1-47.6-4.3-6.2-8.2-11.8-11.7-16.9-30.6-44.1-90.4-19.7-82 30.6zm160 396c0 11 9 20 20 20h322.5c11 0 20-9 20-20v-51.1h-362.5v51.1z">
</path>
</svg>
