<svg viewBox="2 2 20 20" xmlns="http://www.w3.org/2000/svg">
<path fill-rule="evenodd" clip-rule="evenodd" d="M11 14.8286H10C9.448 14.8286 9 15.2894 9 15.8572V18.9429H7V15.8572C7 15.2894 6.552 14.8286 6 14.8286H5V13.8001C5 12.0988 6.346 10.7144 8 10.7144C9.654 10.7144 11 12.0988 11 13.8001V14.8286ZM8 5.05713C8.551 5.05713 9 5.51896 9 6.0857C9 6.65244 8.551 7.11427 8 7.11427C7.449 7.11427 7 6.65244 7 6.0857C7 5.51896 7.449 5.05713 8 5.05713ZM13 13.8C13 11.4291 11.423 9.44811 9.298 8.85463C10.301 8.35577 11 7.30766 11 6.08571C11 4.38446 9.654 3 8 3C6.346 3 5 4.38446 5 6.08571C5 7.30766 5.699 8.35577 6.702 8.85463C4.577 9.44811 3 11.4291 3 13.8V15.8571C3 16.4249 3.448 16.8857 4 16.8857H5V19.9714C5 20.5392 5.448 21 6 21H10C10.552 21 11 20.5392 11 19.9714V16.8857H12C12.552 16.8857 13 16.4249 13 15.8571V13.8ZM15 18.9429C15 17.8073 15.897 16.8857 17 16.8857C18.103 16.8857 19 17.8073 19 18.9429H15ZM17 11.7429C17.551 11.7429 18 12.2047 18 12.7714C18 13.3382 17.551 13.8 17 13.8C16.449 13.8 16 13.3382 16 12.7714C16 12.2047 16.449 11.7429 17 11.7429ZM18.754 15.2637C19.505 14.7021 20 13.7979 20 12.7714C20 11.0702 18.654 9.68571 17 9.68571C15.346 9.68571 14 11.0702 14 12.7714C14 13.7979 14.495 14.7021 15.246 15.2637C13.921 15.9343 13 17.3249 13 18.9429V19.9714C13 20.5392 13.448 21 14 21H20C20.552 21 21 20.5392 21 19.9714V18.9429C21 17.3249 20.079 15.9343 18.754 15.2637Z"/>
</svg>
