<svg viewBox="2 3 20 20" xmlns="http://www.w3.org/2000/svg">
<path fill-rule="evenodd" clip-rule="evenodd" d="M11 16H10C9.448 16 9 16.448 9 17V20H7V17C7 16.448 6.552 16 6 16H5V15C5 13.346 6.346 12 8 12C9.654 12 11 13.346 11 15V16ZM8 6.5C8.551 6.5 9 6.949 9 7.5C9 8.051 8.551 8.5 8 8.5C7.449 8.5 7 8.051 7 7.5C7 6.949 7.449 6.5 8 6.5ZM13 15C13 12.695 11.423 10.769 9.298 10.192C10.301 9.707 11 8.688 11 7.5C11 5.846 9.654 4.5 8 4.5C6.346 4.5 5 5.846 5 7.5C5 8.688 5.699 9.707 6.702 10.192C4.577 10.769 3 12.695 3 15V17C3 17.552 3.448 18 4 18H5V21C5 21.552 5.448 22 6 22H10C10.552 22 11 21.552 11 21V18H12C12.552 18 13 17.552 13 17V15ZM15 20C15 18.896 15.897 18 17 18C18.103 18 19 18.896 19 20H15ZM17 13C17.551 13 18 13.449 18 14C18 14.551 17.551 15 17 15C16.449 15 16 14.551 16 14C16 13.449 16.449 13 17 13ZM18.754 16.423C19.505 15.877 20 14.998 20 14C20 12.346 18.654 11 17 11C15.346 11 14 12.346 14 14C14 14.998 14.495 15.877 15.246 16.423C13.921 17.075 13 18.427 13 20V21C13 21.552 13.448 22 14 22H20C20.552 22 21 21.552 21 21V20C21 18.427 20.079 17.075 18.754 16.423ZM21 5H18V2H16V5H13V7H16V10H18V7H21V5Z"/>
</svg>
