<svg viewBox="2 2 20 20" xmlns="http://www.w3.org/2000/svg">
<path fill-rule="evenodd" clip-rule="evenodd" d="M3.81818 18V6H20.1818V18H3.81818ZM3.81818 4C2.897 4 2 5.02514 2 6V18C2 18.9737 2.897 20 3.81818 20H20.1818C21.103 20 22 18.9737 22 18V6C22 5.02514 21.103 4 20.1818 4H3.81818ZM8.36377 16H15.6365C15.6365 14.159 13.811 13 12.0001 13C10.1863 13 8.36377 14.159 8.36377 16ZM11.9998 12C13.0035 12 13.818 11.104 13.818 10C13.818 8.896 13.0035 8 11.9998 8C10.9962 8 10.1816 8.896 10.1816 10C10.1816 11.104 10.9962 12 11.9998 12Z"/>
</svg>
