<svg xmlns="http://www.w3.org/2000/svg" viewBox="0 0 512 512">
  <path d="M64 80V16c0-8.844 7.156-16 16-16s16 7.156 16 16v64c0 8.844-7.156 16-16 16s-16-7.156-16-16zm272 16c8.844 0 16-7.156 16-16V16c0-8.844-7.156-16-16-16s-16 7.156-16 16v64c0 8.844 7.156 16 16 16zm176 288c0 70.688-57.313 128-128 128s-128-57.313-128-128 57.313-128 128-128 128 57.313 128 128zm-32 0c0-52.938-43.063-96-96-96s-96 43.063-96 96 43.063 96 96 96 96-43.062 96-96zM128 192H64v64h64v-64zM64 352h64v-64H64v64zm96-96h64v-64h-64v64zm0 96h64v-64h-64v64zM32 380.813V160h352v64h32V99.188C416 79.75 400.5 64 381.344 64H368v16c0 17.625-14.344 32-32 32s-32-14.375-32-32V64H112v16c0 17.625-14.344 32-32 32S48 97.625 48 80V64H34.672C15.516 64 0 79.75 0 99.188v281.625C0 400.188 15.516 416 34.672 416H224v-32H34.672C33.22 384 32 382.5 32 380.813zM320 256v-64h-64v64h64zm112 128h-48v-48c0-8.844-7.156-16-16-16s-16 7.156-16 16v64c0 8.844 7.156 16 16 16h64c8.844 0 16-7.156 16-16s-7.156-16-16-16z"></path>
</svg>
