<svg viewBox="2 2 20 20" xmlns="http://www.w3.org/2000/svg">
<path fill-rule="evenodd" clip-rule="evenodd" d="M17.2105 4V4.94118H19.1053C20.4235 4.94118 21 6.20648 21 6.82353V18.1176C21 19.3173 20.3055 20 19.1053 20H4.89474C3.69451 20 3 19.3173 3 18.1176V6.82353C3 6.20648 3.62724 4.94118 4.89474 4.94118H5.84211V6.82353H4.89474V18.1176H19.1053V6.82353H17.2105V8.70588H15.3158V4H17.2105ZM14.3684 6.82353H8.68421V8.70588H6.78947V4H8.68421V4.94118H14.3684V6.82353ZM14.3684 12.4706H17.2105V9.64705H14.3684V12.4706ZM17.2105 16.2353H14.3684V13.4118H17.2105V16.2353ZM10.579 12.4706H13.4211V9.64705H10.579V12.4706ZM13.4211 16.2353H10.579V13.4118H13.4211V16.2353ZM6.78943 12.4706H9.63153V9.64705H6.78943V12.4706ZM9.63153 16.2353H6.78943V13.4118H9.63153V16.2353Z"/>
</svg>
