<svg viewBox="0 -1 18 18" xmlns="http://www.w3.org/2000/svg">
    <path d="M15.88 2.37c.762-.467 1.348-1.21 1.622-2.093-.714.435-1.503.75-2.345.92C14.485.458 13.525 0 12.462 0 10.422 0 8.77 1.695 8.77 3.786c0 .297.03.586.094.863C5.796 4.49 3.076 2.984 1.254.69c-.32.56-.5 1.21-.5 1.905 0 1.313.65 2.472 1.642 3.152-.605-.02-1.175-.192-1.673-.474v.046c0 1.836 1.272 3.366 2.963 3.713-.31.09-.636.133-.974.133-.238 0-.47-.022-.694-.067.47 1.505 1.833 2.6 3.45 2.63C4.203 12.747 2.61 13.35.88 13.35c-.297 0-.592-.015-.88-.05C1.634 14.372 3.575 15 5.66 15c6.794 0 10.507-5.77 10.507-10.774 0-.165-.002-.328-.01-.49.722-.534 1.35-1.2 1.843-1.96-.662.3-1.375.504-2.12.595z"></path>
</svg>