<svg viewBox="0 -14 71 71" xmlns="http://www.w3.org/2000/svg">
    <path d="M38.722 42.11h21.575c5.85 0 10.596-4.744 10.596-10.595 0-.252-.01-.5-.026-.75.087-.536.133-1.088.133-1.65 0-5.62-4.556-10.176-10.176-10.176h-.17c-.938-5.42-5.66-9.54-11.344-9.54-1.16 0-2.286.17-3.34.49-3.415-5.41-9.447-9-16.32-9-9.397 0-17.225 6.72-18.933 15.62C4.974 17.56.622 22.59.622 28.63c0 .508.03 1.007.09 1.497-.06.45-.09.91-.09 1.38 0 5.85 4.744 10.59 10.596 10.59h21.59c-.004-.03-.005-.064-.005-.095V24.32l-11.56 11.564c-.577.575-1.518.575-2.093 0l-2.092-2.092c-.573-.576-.573-1.517 0-2.092l17.68-17.735c.295-.295.686-.433 1.075-.426.39-.01.78.13 1.076.42L54.56 31.7c.576.576.576 1.517 0 2.093l-2.092 2.092c-.574.575-1.515.575-2.09 0L38.726 24.23v17.786c0 .03 0 .063-.003.094z">
</path>
</svg>
