<svg xmlns="http://www.w3.org/2000/svg" viewBox="0 0 24 24">
    <path d="M19.1672674,0 L2.80363104,0 C1.80090376,0 0.985449219,0.816641096 0.985449219,1.82082741 L0.985449219,16.3874467 C0.985449219,17.3916331 1.80090376,18.2082741 2.80363104,18.2082741 L19.1672674,18.2082741 C20.1699947,18.2082741 20.9854492,17.3916331 20.9854492,16.3874467 L20.9854492,1.82082741 C20.9854492,0.816641096 20.1699947,0 19.1672674,0 Z M19.1672674,3.64165483 L11.8945401,3.64165483 L11.8945401,1.82082741 L19.1672674,1.82082741 L19.1672674,3.64165483 Z M7.34908558,3.64165483 L7.34908558,1.82082741 L10.0763583,1.82082741 L10.0763583,3.64165483 L7.34908558,3.64165483 Z M5.53090376,1.82082741 L5.53090376,3.64165483 L2.80363104,3.64165483 L2.80363104,1.82082741 L5.53090376,1.82082741 Z M2.80363104,16.3874467 L2.80363104,5.46248224 L19.1663583,5.46248224 L19.1645401,16.3874467 L2.80363104,16.3874467 Z" id="Shape"></path>
    <rect id="Rectangle-path" x="11.9249645" y="11.8353782" width="4.55206854" height="1.82082741"></rect>
    <polygon id="Shape" points="5.81881975 8.83829627 7.90639838 10.9249645 5.81881975 13.0134535 7.10614474 14.3007785 10.4810483 10.9249645 7.10614474 7.55097129"></polygon>
</svg>
