<?xml version="1.0" standalone="yes"?><svg xmlns="http://www.w3.org/2000/svg" xmlns:xlink="http://www.w3.org/1999/xlink" viewBox="0 0 24 24" version="1.1" style="zoom: 1;"><g id="video-arrow-right-line" transform="translate(1.000000, 4.000000)"><g id="Line_Icons"><path d="M21.3865882,3.11661538 C21.0048235,2.87730769 20.5272941,2.85769231 20.1274118,3.05907692 L16.8235294,4.729 L16.8235294,2.92176923 C16.8235294,1.47807692 15.6627059,0.306384615 14.2352941,0.306384615 L2.58823529,0.306384615 C1.16082353,0.306384615 0,1.47807692 0,2.92176923 L0,13.3833077 C0,14.827 1.16082353,15.9986923 2.58823529,15.9986923 L14.2352941,15.9986923 C15.6627059,15.9986923 16.8235294,14.827 16.8235294,13.3833077 L16.8235294,11.5760769 L20.1274118,13.2446923 C20.3098824,13.3362308 20.5078824,13.382 20.7058824,13.382 C20.9427059,13.382 21.1782353,13.3153077 21.3865882,13.1871538 C21.7670588,12.9491538 22,12.5293846 22,12.0756154 L22,4.22946154 C22,3.77569231 21.7670588,3.35592308 21.3865882,3.11661538 Z M15.2417672,14.2914274 L1.57720588,14.2914274 L1.57720588,2.01364957 L15.2463235,2.01364957 L15.2417672,14.2914274 Z" id="Shape" fill-rule="nonzero"></path></g></g></svg>