<svg>
    <path d="M11.414 0H2C.897 0 0 .898 0 2v16c0 1.103.897 2 2 2h12c1.103 0 2-.897 2-2V4.586L11.414 0zM10 6V1l5 5h-5zm-8.354 4.988c.146-.11 3.613-2.687 6.354-2.687 2.74 0 6.208 2.577 6.354 2.687a.64.64 0 010 1.024c-.146.11-3.613 2.687-6.354 2.687-2.74 0-6.208-2.577-6.354-2.687a.642.642 0 010-1.024zm3.406.512c0-.624.188-1.204.51-1.684-1.217.487-2.384 1.186-3.138 1.684.755.496 1.92 1.195 3.137 1.682a3.015 3.015 0 01-.509-1.682zm8.524 0c-.755-.497-1.92-1.195-3.137-1.683.32.481.508 1.059.508 1.683 0 .623-.188 1.203-.51 1.684 1.218-.488 2.384-1.186 3.14-1.684zM8 12.5a1 1 0 100-2 1 1 0 000 2z"/>
</svg>