<svg viewBox="0 0 43 39" xmlns="http://www.w3.org/2000/svg">
    <path d="M25.355 3.51c.01-.027.027-.064.037-.092.398-1.26-.297-2.6-1.546-3.008-1.222-.39-2.527.26-2.962 1.453l-.055.167c0 .01-.01.018-.01.037-.787 2.25-7.664 20.185-7.664 20.185h-.12L4.92 1.742v-.008l-.112-.287C4.253.27 2.874-.303 1.633.16.365.64-.292 2.03.125 3.307c.99 2.517 10.356 25.248 10.356 25.248l-.61 1.35c-1.027 2.797-2.184 4.675-5.275 4.675-.296 0-1.342-.064-1.407-.064-1-.056-1.925.6-2.202 1.6-.306 1.14.36 2.315 1.49 2.638.823.14 1.666.195 2.415.195 5.702 0 7.59-3.278 9.47-8.072 0 0 10.337-25.83 10.81-26.905.073-.157.138-.314.185-.462zM35.637 32.38c-.222 0-.435-.028-.638-.093l-.298-.148c-.73-.407-9.116-6.062-9.19-7.562-.01-.194.074-.37.23-.48.168-.112.39-.177.686-.177 1.962 0 7.414 2.592 10.597 4.34.972.77 1.185 2.065.546 3.065-.434.657-1.155 1.055-1.933 1.055zM26.42 15.043c-.297 0-.52-.056-.686-.176-.157-.11-.24-.287-.23-.482.082-1.508 8.458-7.154 9.19-7.56l.23-.12c.27-.085.482-.122.704-.122.787 0 1.508.39 1.934 1.046.64 1 .417 2.294-.5 3.026-3.23 1.795-8.68 4.387-10.643 4.387zm13.92 6.6h-.03c-.11 0-11.03-.03-11.892-1.778-.083-.176-.074-.37.037-.528.805-1.296 10.856-2.203 11.7-2.203h.258c1.055.232 1.795 1.083 1.86 2.092.083 1.175-.73 2.212-1.897 2.416h-.037z"></path>
</svg>