<svg viewBox="-2 0 22 22" xmlns="http://www.w3.org/2000/svg">
    <path d="M4.03 15.134l.014-3.403.62-.005.618-.008-.007-.524-.008-.525-1.788-.008-1.788-.007v1.064l.605.008.605.006.007 3.376c.002 1.856.01 3.39.018 3.41.01.028.136.035.55.03l.538-.01.014-3.402zm10.312-.24c-.025-.067.01-.853.044-.967.078-.268.244-.4.507-.4.218 0 .356.088.45.282.058.123.064.175.073.632l.01.496h-.535c-.458 0-.534-.006-.548-.043zm.997 3.667c.522-.15.884-.518 1.02-1.038.023-.088.05-.34.06-.56l.015-.4H15.428l-.013.358c-.014.406-.055.546-.198.676-.153.138-.434.148-.617.02-.218-.15-.272-.406-.26-1.235l.007-.587 1.043-.007 1.043-.008-.014-.875c-.018-.976-.037-1.124-.196-1.47-.304-.658-1.145-.99-1.843-.727-.526.198-.838.555-.963 1.107-.044.194-.05.37-.05 1.798 0 1.752.007 1.824.18 2.183.31.638 1.087.97 1.792.768zm-4.13-.996c.064-.045.106-.107.14-.204.04-.127.045-.29.04-1.79-.006-1.567-.01-1.66-.06-1.762-.125-.262-.443-.287-.734-.058l-.096.075v3.572l.095.075c.216.17.452.206.615.094zm.63 1.008c.16-.047.35-.24.437-.44.166-.38.167-.388.167-2.52 0-1.753-.005-1.97-.047-2.158-.137-.606-.435-.87-.936-.832-.28.022-.5.137-.765.4-.115.114-.218.21-.23.21-.01 0-.02-.582-.02-1.29v-1.288h-.978v7.898h.98v-.267c0-.176.01-.266.03-.266.015 0 .125.093.244.207.38.37.71.47 1.12.345zm-5.208-.026c.196-.075.425-.24.62-.44.088-.095.176-.17.196-.17.026 0 .035.075.035.307v.308h.98V12.7h-.98v4.516l-.21.215c-.168.17-.238.223-.342.252-.174.05-.285.015-.357-.112-.054-.095-.055-.14-.063-2.484l-.007-2.388h-.978v2.535c0 2.762.003 2.822.153 3.088.164.29.55.383.954.226zm.416 2.442c-.636-.01-1.388-.03-1.672-.04-1.908-.07-3.217-.146-3.48-.2-.372-.078-.79-.338-1.03-.644-.388-.49-.595-1.085-.695-2-.232-2.13-.227-4.612.015-6.666.106-.9.37-1.55.812-2.004.252-.26.495-.403.818-.49.7-.184 6.18-.33 9.514-.254 1.925.044 4.005.136 4.558.2.716.085 1.218.466 1.565 1.19.263.546.347.97.454 2.282.083 1.038.104 1.685.088 2.883-.017 1.434-.106 2.697-.24 3.406-.138.75-.47 1.39-.896 1.735-.33.268-.682.387-1.236.42-.164.01-.372.023-.462.03-.32.025-2.026.096-2.963.123-1.393.04-3.828.054-5.152.03zM5.33 7.98c-.023-.04-.02-2.343.004-2.67.03-.417-.038-.746-.33-1.588-.094-.273-.265-.802-.38-1.176-.823-2.7-.78-2.542-.7-2.542C4.467 0 5.137.002 5.144.01c.006.006.182.664.392 1.465l.39 1.48c.005.015.13-.45.276-1.035.307-1.224.48-1.9.486-1.906.014-.013.167-.016.667-.013l.554.004-.014.092c-.01.074-.387 1.38-.783 2.708l-.245.84c-.09.317-.2.692-.245.834l-.08.26V6.36c0 1.52-.003 1.623-.047 1.635-.1.028-1.148.015-1.166-.014zm7.153.098c-.273-.037-.433-.146-.542-.37-.136-.28-.136-.278-.136-3.07V2.036h1.102l.012 2.4c.012 2.608.01 2.547.16 2.587.14.035.293-.042.485-.243l.184-.194.007-2.276.006-2.275.55-.008.552-.007v5.96l-.075.017c-.09.02-.925.018-.992-.002-.04-.01-.048-.05-.048-.283v-.27l-.156.157c-.36.36-.747.527-1.107.478zM9.708 6.94c.19-.148.19-.16.2-1.837.008-1.302.003-1.524-.035-1.7-.052-.24-.142-.354-.32-.404-.23-.064-.438.07-.512.33-.055.197-.054 3.152.002 3.35.043.15.18.313.28.336.132.028.293-.004.386-.076zm-.432 1.137c-.493-.062-.947-.36-1.165-.77-.22-.414-.242-.63-.23-2.46.012-1.418.016-1.507.07-1.71.13-.484.382-.813.772-1.013.536-.273 1.114-.237 1.62.1.322.214.518.525.623.987.046.205.05.362.05 1.793 0 1.74-.008 1.84-.18 2.218-.167.365-.544.685-.937.797-.174.05-.475.078-.622.06z"></path>
</svg>